<svg width="24" height="24" viewBox="0 0 24 24" fill="none" xmlns="http://www.w3.org/2000/svg">
<g id="icon/telegram">
<path id="Shape" d="M12 0C5.37097 0 0 5.37097 0 12C0 18.629 5.37097 24 12 24C18.629 24 24 18.629 24 12C24 5.37097 18.629 0 12 0ZM17.8548 8.22581L15.9194 17.5161C15.7742 18.1935 15.3871 18.3387 14.8065 18.0484L11.8065 15.8226L10.3548 17.2258C10.2097 17.371 10.0645 17.5161 9.77419 17.5161L9.96774 14.4677L15.5323 9.43548C15.7742 9.24194 15.4839 9.09678 15.1452 9.29032L8.27419 13.6452L5.32258 12.7258C4.69355 12.5323 4.69355 12.0484 5.46774 11.7581L17.0323 7.30645C17.5645 7.1129 18.0484 7.45161 17.8548 8.22581Z" fill="white" fill-opacity="0.5"/>
</g>
</svg>
