<svg width="24" height="24" viewBox="0 0 24 24" fill="none" xmlns="http://www.w3.org/2000/svg">
<g id="icon/whatsapp">
<g id="Shape">
<path d="M15.0343 14.8457C15.1285 14.7381 15.2025 14.6237 15.263 14.5026C15.2966 14.4271 15.3197 14.3489 15.3421 14.2731C15.3684 14.1841 15.3889 14.0908 15.3686 14.0003C15.3594 13.9593 15.3464 13.9189 15.3303 13.877C15.2899 13.7963 15.2294 13.7223 15.1419 13.6617L14.0254 12.8679C13.9446 12.8074 13.8639 12.767 13.79 12.7334C13.716 12.6998 13.6487 12.6863 13.5814 12.6863C13.494 12.6863 13.42 12.7132 13.3393 12.7603C13.2653 12.8007 13.1846 12.8612 13.0971 12.9487L12.8416 13.2043C12.8012 13.2447 12.7608 13.2648 12.7003 13.2648C12.6796 13.2648 12.6614 13.2648 12.6442 13.2617C12.6225 13.2577 12.6023 13.2478 12.5826 13.2379C12.5628 13.2281 12.5425 13.2194 12.5232 13.2086C12.4133 13.1469 12.2755 13.0508 12.1151 12.915C11.9335 12.7603 11.7586 12.5989 11.577 12.4172C11.4021 12.2423 11.2407 12.0607 11.086 11.8858C10.9495 11.7245 10.8474 11.5919 10.7849 11.4825C10.7746 11.4645 10.7679 11.4481 10.7606 11.4287C10.751 11.4029 10.7387 11.3747 10.7337 11.3477C10.7312 11.3342 10.7295 11.3207 10.7295 11.3073C10.7295 11.2534 10.7429 11.2131 10.7833 11.1727L11.0389 10.9036C11.1196 10.8229 11.1801 10.7422 11.2272 10.6615C11.2743 10.5807 11.3012 10.5 11.3012 10.4193C11.3012 10.352 11.2878 10.2847 11.2541 10.2108C11.2272 10.1368 11.1801 10.0628 11.1196 9.9753L10.3393 8.87208C10.2788 8.78462 10.1981 8.72408 10.1106 8.68372C10.0232 8.64336 9.92904 8.62318 9.83488 8.62318C9.586 8.62318 9.35059 8.72408 9.13535 8.93935C8.95374 9.10753 8.82593 9.29588 8.74521 9.50442C8.6645 9.70623 8.62415 9.92822 8.62415 10.1569C8.62415 10.5068 8.70485 10.8767 8.86628 11.2602C9.02772 11.6436 9.24967 12.027 9.52545 12.4105C9.80795 12.7939 10.1174 13.1639 10.4672 13.5137C10.8169 13.8568 11.1802 14.173 11.5703 14.4555C11.9537 14.7313 12.3371 14.9533 12.7272 15.1215C13.1106 15.2897 13.4805 15.3704 13.8236 15.3704C14.059 15.3704 14.281 15.33 14.4827 15.2426C14.6845 15.1619 14.8661 15.0273 15.0343 14.8457Z" fill="white" fill-opacity="0.5"/>
<path fill-rule="evenodd" clip-rule="evenodd" d="M24 12C24 5.37258 18.6274 0 12 0C5.37258 0 0 5.37258 0 12C0 18.6274 5.37258 24 12 24C18.6274 24 24 18.6274 24 12ZM10.8371 5.36729C14.92 4.69459 18.4647 7.70157 18.6934 11.6033C18.9154 15.3839 15.7675 18.7272 11.9738 18.7272C10.8336 18.7272 9.72715 18.2765 8.81509 17.9049C8.65641 17.8403 8.48085 17.8303 8.31569 17.8759L6.37754 18.411C5.87979 18.5523 5.41569 18.0948 5.55021 17.5903L6.00487 15.8993C6.10045 15.5437 6.10923 15.1817 5.99685 14.8311C5.71143 13.9407 5.1408 12.1605 5.33497 10.9238C5.77218 8.11191 8.02549 5.83146 10.8371 5.36729Z" fill="white" fill-opacity="0.5"/>
</g>
</g>
</svg>
